Coordinates
version=1
nRows=9
nColumns=24
inDegrees=yes

Units are S.I. units (second, meters, Newtons, ...)
Angles are in degrees.

endheader
time	pelvis_tilt	pelvis_list	pelvis_rotation	pelvis_tx	pelvis_ty	pelvis_tz	hip_flexion_r	hip_adduction_r	hip_rotation_r	knee_angle_r	ankle_angle_r	subtalar_angle_r	mtp_angle_r	hip_flexion_l	hip_adduction_l	hip_rotation_l	knee_angle_l	ankle_angle_l	subtalar_angle_l	mtp_angle_l	lumbar_extension	lumbar_bending	lumbar_rotation
      1.58833333	     -2.25410543	      7.25097966	     -3.88557519	      0.42326067	      0.98897270	      0.30345533	     17.50384246	     -9.09907264	      2.54540293	    -66.50078985	      3.61676446	    -12.73082763	      3.01137337	     11.10007361	     13.19821063	     -1.06308122	    -12.28052595	      2.59152323	    -14.85188605	     -2.39803193	      2.54230801	     -4.42471841	      5.78232357
      1.59250000	     -2.15509244	      7.19599061	     -3.76794173	      0.42791442	      0.98958131	      0.30313123	     17.98841918	     -9.02387293	      2.53359871	    -66.29191114	      4.06387269	    -12.74849244	      2.82243038	     10.51011795	     13.21477610	     -0.82829355	    -11.97175113	      2.64661917	    -14.88516835	     -2.45637906	      2.39723734	     -4.38791080	      5.46511246
      1.59666667	     -2.10888892	      7.09715437	     -3.62181533	      0.43252148	      0.99011543	      0.30281989	     18.50858212	     -8.89010020	      2.49805951	    -66.03522098	      4.53573630	    -12.77271985	      2.75763168	     10.00941743	     13.17128934	     -0.62165523	    -11.74039467	      2.74722291	    -14.80012058	     -2.47581492	      2.30386101	     -4.28962676	      5.37455686
      1.60083333	     -2.02477944	      7.03755026	     -3.48845604	      0.43713039	      0.99064343	      0.30251461	     18.98980808	     -8.80667405	      2.47605152	    -65.75436953	      5.01079979	    -12.73624278	      2.68262028	      9.45740485	     13.16975682	     -0.41405280	    -11.47646611	      2.84027654	    -14.74075538	     -2.50077960	      2.16566203	     -4.24475934	      5.19423974
      1.60500000	     -1.94832181	      6.95657792	     -3.34971686	      0.44173368	      0.99115869	      0.30221610	     19.45924389	     -8.69794969	      2.44715641	    -65.41625028	      5.43240411	    -12.64848185	      2.58676764	      8.91242775	     13.14242722	     -0.19259447	    -11.21553090	      2.93133652	    -14.69930499	     -2.53504412	      2.03338873	     -4.17891712	      4.96532890
      1.60916667	     -1.86018182	      6.89510876	     -3.20909992	      0.44634532	      0.99165710	      0.30192018	     19.90691772	     -8.61349352	      2.41851919	    -65.04370380	      5.84245812	    -12.52320938	      2.48021855	      8.34856579	     13.13303423	      0.02705599	    -10.93854738	      3.02092128	    -14.65240422	     -2.57649155	      1.89513932	     -4.13320295	      4.73411664
      1.61333333	     -1.77491024	      6.83100620	     -3.06033851	      0.45097385	      0.99215129	      0.30162194	     20.33841163	     -8.53138814	      2.37548799	    -64.62117990	      6.23001224	    -12.36686695	      2.34363155	      7.78220121	     13.11711962	      0.24795460	    -10.65391495	      3.10121181	    -14.61511554	     -2.63311409	      1.77506901	     -4.08712614	      4.48591201
      1.61750000	     -1.70034566	      6.75769311	     -2.90617818	      0.45555899	      0.99259306	      0.30133000	     20.77326997	     -8.43496591	      2.33211508	    -64.16757954	      6.61195270	    -12.23397125	      2.23599294	      7.24108093	     13.08534990	      0.46219427	    -10.39520620	      3.20696551	    -14.54086854	     -2.68048962	      1.65040285	     -4.02284112	      4.29483977
      1.62166667	     -1.65862096	      6.68198864	     -2.73621713	      0.46012254	      0.99297699	      0.30105530	     21.22694562	     -8.32764858	      2.28675258	    -63.67275818	      6.97308437	    -12.12299380	      2.17220642	      6.74620765	     13.04329776	      0.68227310	    -10.15985603	      3.30444322	    -14.44876030	     -2.71019276	      1.56212454	     -3.97605624	      4.14258064
